<?xml version="1.0" encoding="UTF-8" standalone="no"?>
<!-- Created with Inkscape (http://www.inkscape.org/) -->

<svg
   width="126.96174mm"
   height="120.37349mm"
   viewBox="0 0 126.96174 120.37349"
   version="1.1"
   id="svg1"
   xml:space="preserve"
   inkscape:version="1.4.3 (0d15f75, 2025-12-25)"
   sodipodi:docname="Shiplogo.svg"
   xmlns:inkscape="http://www.inkscape.org/namespaces/inkscape"
   xmlns:sodipodi="http://sodipodi.sourceforge.net/DTD/sodipodi-0.dtd"
   xmlns="http://www.w3.org/2000/svg"
   xmlns:svg="http://www.w3.org/2000/svg"><sodipodi:namedview
     id="namedview1"
     pagecolor="#ffffff"
     bordercolor="#000000"
     borderopacity="0.25"
     inkscape:showpageshadow="2"
     inkscape:pageopacity="0.0"
     inkscape:pagecheckerboard="false"
     inkscape:deskcolor="#d1d1d1"
     inkscape:document-units="mm"
     inkscape:zoom="0.97386896"
     inkscape:cx="228.98358"
     inkscape:cy="216.14818"
     inkscape:window-width="1920"
     inkscape:window-height="991"
     inkscape:window-x="-9"
     inkscape:window-y="-9"
     inkscape:window-maximized="1"
     inkscape:current-layer="layer1"
     showgrid="true" /><defs
     id="defs1"><inkscape:perspective
       sodipodi:type="inkscape:persp3d"
       inkscape:vp_x="-36.133798 : -84.636513 : 1"
       inkscape:vp_y="0 : 999.99997 : 0"
       inkscape:vp_z="173.86621 : -84.636513 : 1"
       inkscape:persp3d-origin="68.866209 : -134.13651 : 1"
       id="perspective16" /><rect
       x="280.62991"
       y="641.85474"
       width="59.538559"
       height="75.149277"
       id="rect10" /><rect
       x="216.73488"
       y="669.44574"
       width="1.08912"
       height="18.87808"
       id="rect9" /><rect
       x="93.441727"
       y="537.0332"
       width="116.03204"
       height="137.5955"
       id="rect2" /></defs><g
     inkscape:label="Layer 1"
     inkscape:groupmode="layer"
     id="layer1"
     transform="translate(-44.962749,-77.394961)"><g
       id="g23"
       transform="translate(-15.757596,15.21423)"><path
         style="fill:#004080;fill-opacity:1"
         d="m 120.43766,182.41037 c -0.65484,-0.12124 -2.02329,-0.53821 -3.041,-0.9266 l -1.85037,-0.70617 -1.45692,0.61729 c -1.18271,0.50111 -1.93001,0.61729 -3.97046,0.61729 -2.2893,0 -2.63942,-0.0697 -3.92449,-0.78156 -0.77602,-0.42987 -1.70101,-1.12629 -2.05554,-1.54762 l -0.64458,-0.76604 -1.04382,0.94303 c -0.5741,0.51866 -1.67318,1.27462 -2.44238,1.6799 -1.276941,0.67279 -1.640161,0.73616 -4.176691,0.72864 -2.36752,-0.007 -3.07991,-0.11776 -4.81998,-0.74923 l -2.04186,-0.74099 -1.70744,0.68308 c -2.30951,0.92395 -4.6132,0.93028 -6.89121,0.0189 l -1.66012,-0.66415 -1.82459,0.7007 c -3.74924,1.43981 -7.60339,0.718 -10.17898,-1.90633 -0.63167,-0.64363 -1.07931,-1.17023 -0.99475,-1.17023 0.0846,0 0.71451,0.24805 1.39988,0.55122 1.54876,0.68509 4.59921,0.9382 6.47048,0.53688 0.77632,-0.16649 2.31448,-0.66428 3.41813,-1.10621 l 2.00664,-0.80349 1.82404,0.84075 c 1.64886,0.76001 2.0074,0.82899 3.73332,0.71823 1.40682,-0.0903 2.25302,-0.30962 3.21548,-0.83346 l 1.3062,-0.71092 1.92158,0.67136 c 3.91526,1.36791 7.33615,1.40004 10.806801,0.1015 l 1.47299,-0.55111 1.85344,0.8543 c 3.19431,1.47236 5.0715,1.36553 9.65727,-0.54955 0.75014,-0.31327 1.07186,-0.28068 2.91042,0.29488 2.82102,0.8831 7.60981,0.8999 9.96532,0.035 l 1.54828,-0.56853 1.36214,0.64246 c 2.98748,1.40905 6.75134,1.39267 10.09111,-0.0439 1.98773,-0.85501 2.46882,-0.85081 4.76478,0.0416 2.25568,0.87675 4.05393,0.83363 6.20741,-0.14886 l 1.44492,-0.65922 1.59779,0.67429 c 2.21804,0.93604 5.52747,0.96056 7.46029,0.0553 l 1.32161,-0.61901 2.31601,0.81745 c 3.02347,1.06715 5.50482,1.1215 7.84213,0.17177 l 1.58902,-0.64568 -0.5544,0.77858 c -0.66967,0.94048 -1.83204,1.83616 -3.41605,2.6323 -1.65546,0.83205 -3.82797,0.7912 -6.22158,-0.11698 l -1.84409,-0.69969 -1.59549,0.73183 c -2.2044,1.01112 -4.60386,1.00948 -7.01723,-0.005 l -1.71758,-0.72185 -1.57658,0.70753 c -2.21046,0.99199 -4.39414,0.98977 -6.92542,-0.007 l -1.88298,-0.74153 -1.20934,0.53495 c -1.78382,0.78907 -4.03003,1.18481 -5.60678,0.98781 -1.61666,-0.20199 -4.17669,-1.35663 -5.25399,-2.36969 -0.70343,-0.66148 -0.79351,-0.68187 -1.32292,-0.29955 -0.31245,0.22565 -1.14404,0.82484 -1.84799,1.33155 -1.85244,1.33339 -4.45271,1.8924 -6.78988,1.45969 z m -37.754791,-5.60153 c -0.71814,-0.15917 -1.57618,-0.66517 -2.43053,-1.43331 l -1.32054,-1.18727 -1.92825,1.19998 c -1.06054,0.65999 -2.00169,1.19998 -2.09146,1.19998 -0.0898,0 -0.49942,-0.83513 -0.91033,-1.85586 -0.41091,-1.02072 -0.87632,-1.95624 -1.03425,-2.07894 -0.15793,-0.1227 -1.23964,-0.36677 -2.40381,-0.54239 -1.16417,-0.17562 -2.32247,-0.3784 -2.57401,-0.45063 -0.61135,-0.17554 -1.45536,-2.9611 -1.85435,-6.12008 l -0.31321,-2.47983 -2.00973,-1.40825 -2.00973,-1.40826 -0.32339,-1.75506 c -0.39813,-2.16074 -0.91692,-8.81015 -0.7131,-9.13994 0.0819,-0.13245 0.45597,-0.18512 0.83137,-0.11705 1.53764,0.27883 1.69011,0.036 1.69011,-2.69174 v -2.49571 h 1.5875 1.5875 v 2.34885 c 0,1.74678 0.1,2.43183 0.39003,2.67255 0.32353,0.26851 0.48588,0.16125 0.95218,-0.62906 0.67134,-1.13783 0.95361,-1.27293 0.39249,-0.18785 -0.39326,0.76049 -0.39063,0.76567 0.45623,0.89618 0.46848,0.0722 3.41162,0.0781 6.54032,0.0132 l 5.68854,-0.11808 0.48481,1.07398 c 0.26665,0.59069 0.57218,1.07398 0.67896,1.07398 0.10678,0 0.53492,-0.71298 0.95142,-1.58442 0.41651,-0.87143 0.8014,-1.54031 0.85531,-1.48639 0.0539,0.0539 -0.27862,0.86181 -0.73896,1.79533 l -0.83698,1.69732 2.06492,3.22866 2.06493,3.22867 h 1.89997 1.89998 l 0.18143,1.60363 c 0.17514,1.54803 0.20614,1.60078 0.89407,1.52135 l 0.71264,-0.0823 0.0707,-6.669 c 0.0652,-6.1498 0.0343,-6.68789 -0.39687,-6.91163 -0.68036,-0.35306 -6.21723,-1.06139 -8.58843,-1.09871 l -2.03547,-0.032 -0.0996,1.27027 -0.0996,1.27027 -0.0477,-1.25677 c -0.038,-1.00269 -0.1413,-1.25662 -0.51071,-1.25602 -1.33252,0.002 -5.24812,0.61977 -5.39193,0.85049 -0.11141,0.17873 -0.19886,0.17761 -0.26459,-0.003 -0.0886,-0.24401 -2.83261,0.0966 -4.97504,0.61746 -0.5122,0.12454 -0.28732,-0.22113 1.10192,-1.6938 1.98035,-2.09927 3.04326,-4.10107 3.95283,-7.44443 0.53163,-1.95413 0.61123,-2.85596 0.60722,-6.87917 -0.004,-3.92252 -0.0961,-4.99381 -0.60349,-7.00912 -0.76743,-3.04848 -2.2499,-7.18183 -3.39337,-9.46119 l -0.89593,-1.78594 h 1.77478 c 1.56481,0 1.86992,-0.0861 2.57888,-0.7276 0.44225,-0.40019 0.59759,-0.48011 0.34521,-0.17761 -0.25239,0.3025 -0.45889,0.62971 -0.45889,0.72712 0,0.0974 3.95456,0.14758 8.78791,0.11146 l 8.78791,-0.0657 0.0406,-2.718 c 0.0224,-1.4949 -0.0329,-2.76133 -0.1228,-2.8143 -0.0899,-0.053 -1.59218,0.48601 -3.33843,1.19773 -1.74625,0.71172 -3.37726,1.35917 -3.62448,1.43877 -0.38309,0.12336 -0.3364,-0.16509 0.31613,-1.95307 1.09731,-3.0067 2.29696,-10.390394 1.68156,-10.349794 -0.12391,0.008 -1.11703,1.1095 -2.20693,2.447394 -5.49446,6.74464 -9.30329,11.29606 -9.45306,11.29606 -0.0918,0 0.0739,-0.26789 0.36833,-0.59531 0.54506,-0.60623 6.49176,-7.83813 9.65881,-11.746264 l 1.74646,-2.155135 -0.23581,-1.262195 c -0.12969,-0.694207 -0.19301,-1.304987 -0.14071,-1.357289 0.0523,-0.0523 1.33232,-0.121849 2.84448,-0.154548 l 2.74939,-0.05945 0.0788,-1.809753 c 0.0433,-0.995364 -0.0312,-1.947864 -0.16574,-2.116667 -0.13448,-0.168802 -0.14853,-0.545038 -0.0312,-0.83608 0.11731,-0.291042 0.22165,-0.752883 0.23188,-1.026315 0.0174,-0.464244 -0.139,-0.484819 -2.36265,-0.310866 l -2.38125,0.186282 v -1.078561 -1.078197 h 2.46062 c 1.56104,0 2.5767,-0.116075 2.77813,-0.3175 0.24694,-0.246944 0.3175,0.214555 0.3175,2.076747 0,1.316836 0.077,3.30518 0.17111,4.418542 l 0.17112,2.024295 h 1.6589 c 1.49615,0 1.71441,-0.07138 2.22474,-0.727605 0.44135,-0.567528 0.50173,-0.59543 0.27442,-0.126823 -0.32164,0.663051 -0.164,1.119011 0.38686,1.119011 0.2157,0 0.43172,0.446972 0.54347,1.124479 0.102,0.618464 0.30564,1.273307 0.45252,1.455208 0.18312,0.22677 0.17372,0.33073 -0.0299,0.33073 -0.19954,0 -0.29698,0.8575 -0.29698,2.613564 0,2.40454 0.0476,2.64848 0.59531,3.05034 0.585071,0.42927 0.585351,0.43209 0.0161,0.16385 -0.93241,-0.43935 -1.0312,0.1932 -0.17725,1.13491 0.46819,0.51632 0.52724,0.64159 0.15494,0.32871 -0.74936,-0.62975 -0.8626,-0.50644 -1.78133,1.93981 l -0.73429,1.95514 0.63255,0.48599 c 0.3479,0.26729 0.74547,0.45116 0.88348,0.4086 0.7401,-0.22822 3.056361,-7.65949 3.056361,-9.80571 0,-0.982164 -0.0968,-1.148644 -0.92762,-1.596094 -0.51019,-0.27476 -0.875081,-0.5521 -0.810861,-0.61632 0.0642,-0.0642 0.389081,0.074 0.721911,0.3071 1.14876,0.80462 1.28115,0.60119 1.28115,-1.968545 0,-2.392478 -0.61887,-6.248683 -1.07888,-6.722491 -0.15413,-0.15875 -0.2462,-0.15875 -0.24992,0 -0.003,0.138244 -0.25311,0.54901 -0.55529,0.912812 -0.548241,0.660047 -0.548231,0.659416 0.006,-0.295813 0.30541,-0.526499 0.5553,-1.123272 0.5553,-1.326162 0,-0.20289 -0.47312,-1.260399 -1.051371,-2.35002 -0.57826,-1.089621 -1.05451,-2.054777 -1.05834,-2.14479 -0.004,-0.09001 1.09374,-0.185931 2.439051,-0.21315 2.09923,-0.04247 2.5397,-0.131802 3.10696,-0.63009 l 0.66095,-0.5806 -0.50213,0.595313 -0.50214,0.595312 h 6.5233 6.5233 v -4.068645 c 0,-3.220313 -0.0795,-4.134639 -0.38137,-4.38516 -0.27001,-0.224087 -1.00401,-0.262202 -2.51355,-0.130524 -1.20165,0.104822 -2.13216,0.08372 -2.13216,-0.04836 0,-0.128892 0.11075,-0.620516 0.24611,-1.092498 0.29021,-1.011905 0.16139,-1.072652 -0.55738,-0.262837 -0.49144,0.553695 -0.49022,0.539822 0.0175,-0.198437 0.62272,-0.905523 2.26676,-2.797842 2.04217,-2.350585 -0.14641,0.291576 2.93203,0.960175 3.33322,0.723935 0.10275,-0.0605 0.16228,-1.38471 0.1323,-2.942687 l -0.0545,-2.832685 -1.32292,-0.214125 c -0.7276,-0.117768 -2.72905,-0.149574 -4.44766,-0.07068 l -3.12474,0.143443 0.16846,-1.916849 c 0.23235,-2.643827 0.17188,-2.550642 1.49698,-2.30719 0.62945,0.115646 2.7518,0.124242 4.71633,0.0191 2.1289,-0.113936 3.70549,-0.0912 3.90261,0.05629 0.21498,0.160847 0.33073,0.967007 0.33073,2.303414 0,1.712482 0.0772,2.085588 0.46213,2.233299 0.25418,0.09754 2.2896,0.172629 4.52318,0.166873 3.14688,-0.0081 4.2376,0.08083 4.84534,0.395104 0.87604,0.453017 2.86934,2.18068 2.86934,2.486955 0,0.108715 -0.74414,0.538703 -1.65365,0.955528 -1.57896,0.723636 -1.85977,0.762299 -6.21771,0.856063 l -4.56405,0.0982 v 6.191528 6.191527 h 6.2177 6.21771 v 0.79375 0.79375 h -1.71979 c -0.94589,0 -1.7198,0.04966 -1.7198,0.110357 0,0.06069 0.22258,0.629606 0.49462,1.264246 0.69423,1.619564 1.35747,4.698541 1.35747,6.301792 0,0.744825 0.12325,1.584524 0.27389,1.865999 0.1888,0.352778 0.1888,0.511773 0,0.511773 -0.15064,0 -0.27389,0.465776 -0.27389,1.035058 0,2.579912 -1.35295,7.272536 -2.81706,9.770866 -0.37203,0.63481 -1.14054,1.61833 -1.7078,2.18559 l -1.03139,1.03139 h 10.73345 10.73346 l -0.18643,-0.59531 c -0.3286,-1.0493 -0.2863,-1.14839 0.10913,-0.25564 0.72362,1.63371 0.96428,0.86182 1.04072,-3.33797 0.0516,-2.83365 -0.0142,-4.01316 -0.22387,-4.01316 -0.59543,0 -3.15646,0.83691 -3.15646,1.03149 0,0.11011 0.30407,0.94852 0.67572,1.86315 0.37164,0.91462 0.62887,1.7098 0.57161,1.76706 -0.0573,0.0573 -0.43138,-0.73008 -0.83139,-1.74963 -0.40001,-1.01956 -0.86658,-1.85374 -1.03683,-1.85374 -0.17025,0 -1.65308,0.5265 -3.29519,1.16999 -2.68282,1.05131 -2.96841,1.11567 -2.8157,0.63454 0.6343,-1.99851 1.14661,-4.03829 1.04082,-4.14409 -0.0689,-0.0689 0.0225,-0.30334 0.20315,-0.520974 0.22161,-0.26699 0.32843,-1.43662 0.32843,-3.596214 0,-3.111985 -0.0238,-3.243869 -0.85888,-4.766997 -0.47238,-0.861556 -0.80922,-1.616126 -0.74852,-1.676821 0.0607,-0.0607 2.43313,-0.09778 5.27208,-0.0824 2.83895,0.01537 5.2195,-0.06552 5.29011,-0.179773 0.0706,-0.114251 0.0607,-1.918141 -0.0221,-4.008644 l -0.15047,-3.800917 -1.95687,0.147998 -1.95688,0.147999 0.0793,-1.369654 0.0793,-1.369654 h 2.57967 2.57967 l 2e-5,1.224374 c 2e-5,1.777976 0.21975,1.87423 3.79099,1.660721 2.98585,-0.17851 3.06978,-0.168043 4.26403,0.531831 0.67002,0.39266 1.14773,0.827983 1.06157,0.967385 -0.0861,0.139402 -0.63607,0.498042 -1.22203,0.796978 -0.8884,0.453228 -1.45692,0.529519 -3.42224,0.45924 -1.29627,-0.04635 -2.35658,-0.01889 -2.35625,0.06103 3.4e-4,0.07992 -0.41611,0.09666 -0.92543,0.0372 l -0.92604,-0.10811 v 2.410197 2.410197 h 2.01268 c 1.80188,0 1.99579,-0.04849 1.85144,-0.463021 -0.14295,-0.410462 -0.12364,-0.416109 0.17013,-0.04975 0.18225,0.227299 0.529,0.487335 0.77055,0.577857 1.41495,0.530273 1.96302,8.104308 0.80898,11.179712 l -0.59571,1.58748 1.26128,1.14763 1.26127,1.14763 -1.2875,-1.00624 -1.2875,-1.00625 -0.61672,0.71698 c -0.7109,0.82647 -2.43247,2.04795 -2.86447,2.03237 -0.16159,-0.006 0.0634,-0.19857 0.49994,-0.42831 1.05823,-0.5569 2.24896,-1.68942 2.24896,-2.13902 0,-0.36043 -1.62426,-1.18234 -2.93754,-1.48645 l -0.68859,-0.15946 -0.18475,3.96752 c -0.10161,2.18213 -0.1095,4.08926 -0.0175,4.23807 0.10799,0.17473 2.65788,0.25906 7.19875,0.23809 l 7.03154,-0.0325 1.04975,1.22811 c 0.84898,0.99321 18.75851,16.56833 22.52348,19.58764 l 0.98977,0.79375 -2.47341,2.51354 c -5.42063,5.50859 -15.55813,16.25253 -15.55813,16.48885 0,0.24863 7.29894,0.0111 8.17736,-0.26613 0.29295,-0.0925 0.3238,-0.062 0.1011,0.0996 -0.17627,0.12798 -0.78897,0.94288 -1.36155,1.8109 -0.57258,0.86801 -1.88687,2.50521 -2.92065,3.63822 l -1.87959,2.06001 -0.005,1.77644 -0.005,1.77645 -1.89489,1.98438 c -4.49663,4.70899 -12.98915,13.22916 -13.18623,13.22916 -0.11821,0 -1.1293,-0.4932 -2.24687,-1.09601 -2.12756,-1.14759 -2.06986,-1.14904 -2.7709,0.0693 -0.67719,1.1769 -3.84756,1.68077 -5.70151,0.90614 -0.50695,-0.21182 -1.2538,-0.7487 -1.65967,-1.19307 l -0.73794,-0.80795 -1.58911,0.64571 c -3.75501,1.5258 -7.63898,1.79088 -11.28931,0.7705 -1.42457,-0.39821 -1.66579,-0.39589 -3.48909,0.0335 -2.74736,0.64699 -8.09282,0.48044 -10.27081,-0.32002 l -1.53196,-0.56303 -1.90762,0.83368 c -1.69298,0.73987 -2.19046,0.83448 -4.42119,0.84086 -2.19867,0.006 -2.70961,-0.0843 -4.07871,-0.7231 l -1.56517,-0.7303 -1.47754,0.50595 c -3.188177,1.09172 -6.749547,0.96799 -11.170267,-0.38809 l -2.32776,-0.71405 -1.03762,0.93742 c -0.57069,0.51558 -1.43795,1.01824 -1.92725,1.11702 -0.4893,0.0988 -1.06823,0.21618 -1.28651,0.26088 -0.21828,0.0447 -0.89637,-0.0294 -1.50687,-0.16475 z m 15.61506,-16.82322 0.21967,-1.38906 h 3.252701 3.25271 l 0.13788,1.22335 c 0.0758,0.67284 0.29969,1.32586 0.49743,1.45115 0.47282,0.29958 3.13767,0.30293 3.13767,0.004 0,-0.12759 -0.54041,-1.80968 -1.2009,-3.73799 -0.6605,-1.92831 -1.15668,-3.55024 -1.10263,-3.60429 0.0541,-0.0541 0.67599,1.57438 1.38207,3.61874 l 1.28378,3.71704 0.94332,-0.0792 c 0.90608,-0.0761 0.94653,-0.1236 1.02468,-1.20368 l 0.0814,-1.12448 h 1.71657 1.71657 l -0.13759,-0.99219 -0.13759,-0.99219 0.28418,0.99219 c 0.22686,0.79208 0.41227,0.99219 0.91934,0.99219 h 0.63518 v -3.86953 -3.86953 l -0.82683,0.16537 c -0.45475,0.0909 -1.0539,0.16536 -1.33144,0.16536 -0.27754,0 -0.6123,0.26789 -0.74391,0.59531 -0.18333,0.45612 -0.2432,0.48705 -0.25605,0.13229 -0.0211,-0.58204 0.15041,-0.59919 -3.45636,0.34561 -1.67349,0.43838 -3.30248,0.85335 -3.61999,0.92216 -1.1115,0.24088 -5.4006,1.70288 -8.153951,2.77939 -2.64679,1.03484 -2.77814,1.12278 -2.77814,1.85988 0,0.58461 0.12326,0.77369 0.50434,0.77369 0.4053,0 0.54046,0.26268 0.68831,1.33768 0.17991,1.30808 0.20238,1.33588 1.01597,1.25677 0.7841,-0.0763 0.84462,-0.16085 1.05165,-1.46997 z m 15.810621,-3.66007 c 0.0127,-0.30822 0.0754,-0.37092 0.15985,-0.15985 0.0764,0.19099 0.067,0.4192 -0.0209,0.50712 -0.0879,0.0879 -0.15045,-0.0684 -0.13896,-0.34727 z m -0.26459,-1.05833 c 0.0127,-0.30823 0.0754,-0.37092 0.15986,-0.15986 0.0764,0.191 0.067,0.4192 -0.0209,0.50712 -0.0879,0.0879 -0.15046,-0.0683 -0.13897,-0.34726 z m -0.26458,-1.05833 c 0.0127,-0.30823 0.0754,-0.37092 0.15985,-0.15986 0.0764,0.191 0.067,0.4192 -0.0209,0.50712 -0.0879,0.0879 -0.15045,-0.0684 -0.13896,-0.34726 z m -0.26458,-1.05834 c 0.0127,-0.30822 0.0754,-0.37092 0.15985,-0.15985 0.0764,0.191 0.067,0.4192 -0.0209,0.50712 -0.0879,0.0879 -0.15045,-0.0683 -0.13896,-0.34727 z m 10.29874,6.90121 0.44166,-1.32291 h 3.15216 3.15217 l 0.15077,1.12973 c 0.17891,1.34047 0.49735,1.72432 1.33123,1.60465 0.61074,-0.0877 0.72459,-0.32488 1.15775,-2.41225 l 0.15277,-0.7362 2.96748,0.0747 2.96749,0.0747 0.3744,1.40224 0.37441,1.40223 1.08268,-0.0793 c 1.04359,-0.0765 1.08565,-0.11514 1.1648,-1.0715 0.0747,-0.90289 0.15212,-0.99219 0.8599,-0.99219 0.6657,0 0.78157,-0.10484 0.80415,-0.7276 l 0.0264,-0.72761 0.18251,0.66146 c 0.14736,0.53406 0.37516,0.67749 1.18272,0.74468 1.69686,0.14118 1.75702,-0.0243 1.75702,-4.83401 0,-2.35903 -0.0661,-4.35523 -0.14688,-4.43601 -0.2004,-0.2004 -3.66876,0.60009 -3.77282,0.87076 -0.0458,0.11909 -0.23322,0.15897 -0.41653,0.0886 -0.78053,-0.29952 -12.09165,3.85345 -16.34981,6.00296 -0.83813,0.42308 -1.57778,0.76924 -1.64366,0.76924 -0.0659,0 0.36081,-1.18897 0.94821,-2.64216 0.5874,-1.45318 1.0032,-2.81104 0.92399,-3.01745 -0.10191,-0.26558 -0.82612,-0.42437 -2.47711,-0.54314 -2.53549,-0.1824 -3.99851,-0.24208 -4.5159,-0.18423 -0.25157,0.0281 -0.33073,1.2297 -0.33073,5.01997 0,2.74064 0.0841,5.06708 0.18688,5.16986 0.10278,0.10279 1.01564,0.1524 2.02856,0.11025 l 1.84169,-0.0766 z m 19.72074,-3.97892 c -0.10236,-0.81927 -0.13115,-1.54453 -0.064,-1.6117 0.0672,-0.0672 0.20587,0.5482 0.30823,1.36747 0.10236,0.81927 0.13116,1.54453 0.064,1.6117 -0.0672,0.0672 -0.20586,-0.5482 -0.30823,-1.36747 z m -0.35547,-2.63566 c 0.005,-0.43656 0.0647,-0.58312 0.13178,-0.32569 0.0671,0.25743 0.0627,0.61462 -0.01,0.79375 -0.0725,0.17913 -0.12736,-0.0315 -0.12197,-0.46806 z m -0.27438,-1.71979 c 0,-0.3638 0.06,-0.51263 0.13345,-0.33073 0.0734,0.18191 0.0734,0.47956 0,0.66146 -0.0734,0.1819 -0.13345,0.0331 -0.13345,-0.33073 z m 11.02134,7.73906 0.0829,-0.85989 h 3.0495 3.04949 l 3.49627,-3.63802 c 10.93442,-11.37775 13.08366,-13.67793 12.96292,-13.8733 -0.0733,-0.11867 -1.78591,-0.21576 -3.8057,-0.21576 h -3.67234 l -0.17001,1.25677 c -0.32326,2.38968 -1.19285,5.11879 -2.39151,7.50545 -0.97992,1.95114 -1.28671,2.3599 -1.65223,2.20144 -1.72702,-0.7487 -4.82163,-1.73833 -6.57384,-2.10227 -2.23934,-0.46512 -7.68099,-0.66723 -8.23989,-0.30604 -0.25852,0.16707 -0.33322,1.24798 -0.30621,4.43082 0.0406,4.77874 0.1162,5.27007 0.8113,5.27007 0.30681,0 0.4983,0.1864 0.4983,0.48507 0,0.73603 0.26832,0.86935 1.57765,0.7839 1.14203,-0.0745 1.20451,-0.12021 1.28339,-0.93824 z m -56.871961,-5.80519 1.61184,-3.22551 -1.59722,-0.97026 c -0.87847,-0.53364 -1.64417,-0.9233 -1.70156,-0.86591 -0.0808,0.0808 -0.20141,7.11235 -0.14176,8.26514 0.0201,0.38803 0.13156,0.19274 1.8287,-3.20346 z m -30.70588,-5.74109 c 0.0452,-0.71153 -0.0327,-1.40853 -0.17306,-1.5489 -0.14381,-0.14381 -0.72826,-0.17529 -1.33892,-0.0721 l -1.08371,0.18309 v 1.25557 c 0,0.69056 0.085,1.34054 0.18884,1.4444 0.10386,0.10386 0.66941,0.15347 1.25677,0.11024 l 1.06793,-0.0786 z M 181.54689,135.98421 c 2.39255,-2.39585 4.27895,-4.42723 4.19201,-4.51418 -0.087,-0.087 -1.27194,-0.35298 -2.63332,-0.59119 -4.66444,-0.81617 -16.89207,-0.45159 -16.5768,0.49425 0.0912,0.27353 10.28909,8.96722 10.51877,8.96722 0.0821,0 2.10678,-1.96024 4.49934,-4.3561 z m 3.04487,-6.73242 c -1.1599,-1.12295 -20.06282,-17.21597 -20.13599,-17.1428 -0.0434,0.0434 0.2138,0.80337 0.57148,1.68889 1.01576,2.51479 1.94274,6.31881 2.2402,9.19308 0.14951,1.44467 0.31106,2.6659 0.35899,2.71384 0.0479,0.0479 2.75531,0.61509 6.01637,1.26035 5.20067,1.02903 10.45063,2.33026 10.79627,2.6759 0.0638,0.0638 0.24161,0.11593 0.39521,0.11593 0.15361,0 0.0445,-0.22734 -0.24253,-0.50519 z m -87.821871,-15.9191 c -0.13469,0.21792 0.88205,0.2941 3.737731,0.28003 2.15751,-0.0106 5.41103,0.008 7.23004,0.0411 5.483,0.10014 6.35,0.0329 6.35,-0.49215 0,-0.37462 0.0733,-0.35107 0.41188,0.13229 0.22653,0.32342 0.62867,0.58803 0.89364,0.58803 1.00847,0 1.14328,-0.60721 1.02601,-4.62126 -0.0615,-2.10686 -0.16485,-3.88259 -0.22954,-3.94606 -0.0647,-0.0635 -1.04035,0.0687 -2.16814,0.29377 -1.53635,0.30657 -2.05153,0.5161 -2.05457,0.83563 -0.003,0.31678 -0.0588,0.3403 -0.2167,0.0915 -0.16302,-0.25682 -1.1037,-0.0302 -4.03084,0.97096 -4.98916,1.70647 -8.183941,2.93916 -8.183351,3.15752 2.6e-4,0.0964 0.535601,0.51335 1.189641,0.92655 0.65404,0.41321 1.26597,0.87556 1.35985,1.02745 0.0939,0.1519 -0.55399,-0.21594 -1.43971,-0.81742 -0.885711,-0.60148 -1.701741,-1.09359 -1.813401,-1.09359 -0.11166,0 -0.48522,0.32742 -0.83014,0.7276 l -0.62711,0.72761 0.55447,-0.83943 0.55448,-0.83943 -0.82411,-0.58681 -0.8241,-0.58682 -1.03829,1.16166 c -1.1295,1.26371 -1.6474,2.2557 -1.44841,2.77426 0.19156,0.4992 1.2698,0.58872 1.97779,0.16421 0.35036,-0.21009 0.54611,-0.24418 0.44288,-0.0771 z m 16.553421,-2.39053 c -0.16301,-0.46759 -0.25007,-0.89646 -0.19348,-0.95305 0.0566,-0.0566 0.23626,0.27968 0.39926,0.74727 0.16301,0.46758 0.25007,0.89646 0.19348,0.95305 -0.0566,0.0566 -0.23626,-0.27968 -0.39926,-0.74727 z m -1.05834,-2.91041 c -0.163,-0.46759 -0.25006,-0.89647 -0.19347,-0.95306 0.0566,-0.0566 0.23626,0.27968 0.39926,0.74727 0.163,0.46759 0.25007,0.89646 0.19347,0.95305 -0.0566,0.0566 -0.23626,-0.27968 -0.39926,-0.74726 z m 13.46176,5.23936 c -0.004,-0.49038 -1.23036,-3.00647 -1.56665,-3.21431 -0.19303,-0.11929 0.22358,-0.75214 1.16343,-1.76729 0.80528,-0.86979 1.46414,-1.74043 1.46414,-1.93474 0,-0.50708 -3.1706,-1.22197 -5.6959,-1.28428 l -2.1093,-0.052 -0.0732,3.90673 c -0.0403,2.14871 0.037,4.11324 0.17171,4.36563 0.21567,0.40402 0.62779,0.44912 3.44667,0.37718 2.25685,-0.0576 3.20097,-0.17471 3.19915,-0.39687 z m -30.078411,-2.95151 0.9873,-1.18113 -0.78584,-0.40637 c -0.43222,-0.2235 -0.90024,-0.40637 -1.04007,-0.40637 -0.13982,0 -0.29456,0.71459 -0.34386,1.58798 -0.0493,0.87339 -0.0256,1.58776 0.0528,1.5875 0.0783,-2.7e-4 0.58669,-0.53199 1.12971,-1.18161 z m 84.585161,38.85047 c 1.23441,-0.87896 2.89408,-2.73449 3.69501,-4.13108 0.43887,-0.76526 0.79906,-1.26102 0.80043,-1.10168 0.004,0.46057 -1.967,3.34605 -2.80586,4.10781 -0.41994,0.38135 -1.12072,0.89644 -1.55728,1.14465 -0.77588,0.44112 -0.77886,0.44068 -0.1323,-0.0197 z M 68.852009,146.55802 c 0,-0.14552 0.11542,-0.44318 0.25648,-0.66146 0.14107,-0.21828 0.25648,-0.27781 0.25648,-0.13229 0,0.14552 -0.11541,0.44318 -0.25648,0.66146 -0.14106,0.21828 -0.25648,0.27781 -0.25648,0.13229 z m 1.07112,-3.46163 c 0.0127,-0.30823 0.0754,-0.37092 0.15985,-0.15986 0.0764,0.191 0.067,0.4192 -0.0209,0.50712 -0.0879,0.0879 -0.15045,-0.0683 -0.13896,-0.34726 z m 114.849891,0.28663 c -7.5e-4,-0.14552 0.15912,-0.6813 0.35526,-1.19063 0.19613,-0.50932 0.3603,-0.74744 0.36481,-0.52916 0.005,0.21828 -0.15536,0.75406 -0.35526,1.19062 -0.1999,0.43656 -0.36406,0.67469 -0.36481,0.52917 z M 70.187709,142.03805 c 0.0127,-0.30822 0.0754,-0.37092 0.15986,-0.15985 0.0764,0.191 0.067,0.4192 -0.0209,0.50712 -0.0879,0.0879 -0.15046,-0.0684 -0.13897,-0.34727 z m 0.28547,-1.43316 c 0,-0.3638 0.0601,-0.51263 0.13346,-0.33073 0.0734,0.18191 0.0734,0.47956 0,0.66146 -0.0734,0.1819 -0.13346,0.0331 -0.13346,-0.33073 z m 115.072861,0.11025 c 0.0127,-0.30823 0.0754,-0.37092 0.15985,-0.15986 0.0764,0.191 0.067,0.4192 -0.0209,0.50712 -0.0879,0.0879 -0.15045,-0.0684 -0.13896,-0.34726 z m 0.29527,-1.30087 c 0.005,-0.43656 0.0647,-0.58313 0.13178,-0.3257 0.0671,0.25744 0.0627,0.61462 -0.01,0.79375 -0.0725,0.17914 -0.12736,-0.0315 -0.12197,-0.46805 z M 70.716879,139.12764 c 0.0127,-0.30823 0.0754,-0.37092 0.15985,-0.15986 0.0764,0.191 0.067,0.4192 -0.0209,0.50712 -0.0879,0.0879 -0.15045,-0.0683 -0.13896,-0.34726 z m 115.431351,-3.15295 c -8e-4,-1.30969 0.0439,-1.87883 0.0994,-1.26476 0.0555,0.61407 0.0562,1.68564 0.001,2.38125 -0.0547,0.69562 -0.10008,0.19319 -0.10089,-1.11649 z m -115.145881,1.4552 c 0,-0.3638 0.06,-0.51263 0.13345,-0.33073 0.0734,0.18191 0.0734,0.47956 0,0.66146 -0.0734,0.1819 -0.13345,0.0331 -0.13345,-0.33073 z m 0.27439,-2.51354 c 0.005,-0.43656 0.0647,-0.58312 0.13177,-0.32569 0.0671,0.25743 0.0627,0.61462 -0.01,0.79375 -0.0725,0.17913 -0.12736,-0.0315 -0.12197,-0.46806 z m 0.23389,-8.22413 c 0.0127,-0.30822 0.0754,-0.37092 0.15985,-0.15985 0.0764,0.19099 0.067,0.4192 -0.0209,0.50712 -0.0879,0.0879 -0.15045,-0.0683 -0.13896,-0.34727 z m 89.123661,-18.03576 -0.64143,-0.72761 0.7276,0.64144 c 0.68006,0.59951 0.84894,0.81377 0.64144,0.81377 -0.0474,0 -0.37482,-0.32742 -0.72761,-0.7276 z m -1.46032,-1.19063 -0.50403,-0.59531 0.59531,0.50403 c 0.55945,0.47366 0.71577,0.68659 0.50403,0.68659 -0.0502,0 -0.31809,-0.26789 -0.59531,-0.59531 z m -14.49426,-0.0764 c -0.25532,-0.66534 -0.18,-0.83702 0.13191,-0.30065 0.15443,0.26557 0.22505,0.5386 0.15693,0.60672 -0.0681,0.0681 -0.1981,-0.0696 -0.28884,-0.30607 z m 13.17134,-0.98196 -0.50402,-0.59531 0.59531,0.50403 c 0.32742,0.27721 0.59531,0.5451 0.59531,0.59531 0,0.21173 -0.21293,0.0554 -0.6866,-0.50403 z m -1.32291,-1.05833 -0.50403,-0.59531 0.59531,0.50402 c 0.32742,0.27722 0.59531,0.54511 0.59531,0.59532 0,0.21173 -0.21293,0.0554 -0.68659,-0.50403 z m -20.09877,-5.636984 c -0.49319,-0.39513 -0.48995,-0.40001 0.0817,-0.12298 0.32742,0.15867 0.59531,0.34383 0.59531,0.411474 0,0.20246 -0.13722,0.14399 -0.67704,-0.288494 z m -1.63807,-0.94186 c -0.90184,-0.57755 -1.19369,-0.96539 -0.39688,-0.52742 0.60707,0.33368 1.55809,1.0691 1.38906,1.07416 -0.0728,0.002 -0.51924,-0.24386 -0.99218,-0.54674 z m -1.80152,-1.17478 c -0.49319,-0.395123 -0.48994,-0.400008 0.0817,-0.122979 0.32742,0.158669 0.59532,0.343829 0.59532,0.411469 0,0.20247 -0.13722,0.144 -0.67704,-0.28849 z m -1.63807,-0.941882 c -0.90183,-0.577551 -1.19368,-0.965399 -0.39687,-0.527423 0.60707,0.333683 1.55808,1.069101 1.38906,1.074157 -0.0728,0.0022 -0.51924,-0.243854 -0.99219,-0.546734 z M 90.804319,92.350846 c 0,-0.05494 0.20836,-0.263302 0.46303,-0.463021 0.41964,-0.329108 0.429,-0.319749 0.0999,0.0999 -0.34564,0.440729 -0.56292,0.580887 -0.56292,0.363126 z m 8.20209,-0.429272 c 0.15576,-0.291042 0.34273,-0.529167 0.41549,-0.529167 0.0728,0 0.005,0.238125 -0.15091,0.529167 -0.15576,0.291042 -0.34273,0.529167 -0.41549,0.529167 -0.0728,0 -0.005,-0.238125 0.15091,-0.529167 z m 34.660411,-7.036827 c -2.25558,-2.105947 -4.45823,-4.202153 -4.89479,-4.658234 -0.43657,-0.456082 1.17078,0.962409 3.57187,3.152202 4.06458,3.706893 5.80686,5.391015 5.53623,5.351444 -0.0617,-0.009 -1.95774,-1.739464 -4.21331,-3.845412 z m 17.4625,2.274327 c -0.15576,-0.291047 -0.22367,-0.529172 -0.15091,-0.529172 0.0728,0 0.25973,0.238125 0.41549,0.529167 0.15576,0.291042 0.22367,0.529167 0.15091,0.529167 -0.0728,0 -0.25973,-0.238125 -0.41549,-0.529167 z m -46.56666,-4.333228 c 0,-0.05494 0.20836,-0.263302 0.46302,-0.463021 0.41964,-0.329108 0.429,-0.319749 0.0999,0.0999 -0.34564,0.440729 -0.56291,0.580887 -0.56291,0.363126 z m 1.19062,-1.487605 c 0.26339,-0.291042 0.53842,-0.529167 0.61118,-0.529167 0.0728,0 -0.0832,0.238125 -0.34659,0.529167 -0.26339,0.291041 -0.53842,0.529166 -0.61118,0.529166 -0.0728,0 0.0832,-0.238125 0.34659,-0.529166 z m 0.66146,-0.893645 c 0,-0.05494 0.20836,-0.263302 0.46302,-0.463021 0.41965,-0.329108 0.429,-0.319749 0.0999,0.0999 -0.34565,0.440729 -0.56292,0.580887 -0.56292,0.363126 z m 1.5875,-2.016772 c 0.46102,-0.582083 0.89775,-1.058333 0.97051,-1.058333 0.0728,0 -0.24491,0.47625 -0.70593,1.058333 -0.46101,0.582083 -0.89774,1.058333 -0.9705,1.058333 -0.0728,0 0.2449,-0.47625 0.70592,-1.058333 z m 18.11567,-0.595313 -1.57922,-1.653645 1.65365,1.579217 c 1.53609,1.466959 1.77472,1.728074 1.57922,1.728074 -0.0409,0 -0.78508,-0.74414 -1.65365,-1.653646 z m -16.26359,-1.785942 c 0.46102,-0.582083 0.89775,-1.058333 0.97051,-1.058333 0.0728,0 -0.2449,0.47625 -0.70592,1.058333 -0.46102,0.582083 -0.89775,1.058333 -0.97051,1.058333 -0.0728,0 0.24491,-0.47625 0.70592,-1.058333 z m 12.82234,-1.389063 -1.31297,-1.389062 1.38906,1.31297 c 0.76399,0.722134 1.38907,1.347212 1.38907,1.389063 0,0.19743 -0.24512,-0.02223 -1.46516,-1.312971 z m -8.72129,-3.902604 c 0.26339,-0.291041 0.53842,-0.529166 0.61118,-0.529166 0.0728,0 -0.0832,0.238125 -0.3466,0.529166 -0.26339,0.291042 -0.53842,0.529167 -0.61118,0.529167 -0.0728,0 0.0832,-0.238125 0.3466,-0.529167 z m 0.66145,-0.893645 c 0,-0.05494 0.20837,-0.263301 0.46303,-0.46302 0.41964,-0.329108 0.429,-0.319749 0.0999,0.09989 -0.34565,0.44073 -0.56292,0.580888 -0.56292,0.363126 z m 1.05834,-1.322916 c 0,-0.05494 0.20836,-0.263302 0.46302,-0.463021 0.41965,-0.329107 0.429,-0.319749 0.0999,0.0999 -0.34564,0.440729 -0.56291,0.580887 -0.56291,0.363126 z"
         id="path23" /><text
         xml:space="preserve"
         style="font-style:normal;font-variant:normal;font-weight:normal;font-stretch:normal;font-size:19.7556px;line-height:0;font-family:'Modern No. 20';-inkscape-font-specification:'Modern No. 20, Normal';font-variant-ligatures:normal;font-variant-caps:normal;font-variant-numeric:normal;font-variant-east-asian:normal;writing-mode:lr-tb;direction:ltr;fill:#000000;stroke-width:0.264583"
         x="84.246681"
         y="144.99823"
         id="text11"
         inkscape:highlight-color="#d8f4fb"><tspan
           sodipodi:role="line"
           id="tspan11"
           style="font-style:normal;font-variant:normal;font-weight:normal;font-stretch:normal;font-size:42.3333px;line-height:0;font-family:'French Script MT';-inkscape-font-specification:'French Script MT, Normal';font-variant-ligatures:normal;font-variant-caps:normal;font-variant-numeric:normal;font-variant-east-asian:normal;fill:#ffffff;stroke-width:0.264583"
           x="84.246681"
           y="144.99823">RM</tspan></text></g></g><g
     inkscape:groupmode="layer"
     id="layer2"
     inkscape:label="Layer 2"
     transform="translate(-44.962749,-77.394961)" /><g
     inkscape:groupmode="layer"
     id="layer3"
     inkscape:label="Layer 3"
     transform="translate(-44.962749,-77.394961)" /></svg>
